<svg width="60" height="30" viewBox="0 0 60 30" fill="none" xmlns="http://www.w3.org/2000/svg">
<path d="M15.5144 1.13952C16.0661 1.39775 16.5591 1.89073 16.7352 2.36024C16.9112 2.82974 16.8995 3.79222 16.6999 4.23825C16.606 4.44953 14.6576 6.49187 12.2983 8.8394L8.06106 13.0649L33.2617 13.1236L58.4741 13.1823L58.9201 13.464C59.1666 13.6166 59.507 13.957 59.6831 14.2152C59.953 14.6143 60 14.8256 60 15.4711C60 16.1167 59.953 16.328 59.6831 16.7271C59.507 16.9853 59.1666 17.3257 58.9201 17.4783L58.4741 17.76L33.2617 17.8187L8.06106 17.8774L12.2983 22.1029C14.6576 24.4504 16.606 26.4928 16.6999 26.704C16.8995 27.1501 16.9112 28.1126 16.7352 28.5821C16.3126 29.7206 14.775 30.331 13.6716 29.8145C13.1669 29.5798 0.71331 17.3492 0.290756 16.6684C-0.108322 16.0228 -0.0965843 14.8608 0.32597 14.227C0.818951 13.4875 13.1669 1.36254 13.6716 1.12779C14.235 0.857822 14.9276 0.86956 15.5144 1.13952Z" fill="#4646B6"/>
</svg>
