<svg width="27" height="21" viewBox="0 0 27 21" fill="none" xmlns="http://www.w3.org/2000/svg">
<path d="M13.5078 2.97021C9.59523 2.97021 5.68268 2.97021 1.77013 2.96835C1.54859 2.96835 1.32049 2.97301 1.10552 2.92821C0.375202 2.7742 -0.0537893 2.13016 0.013798 1.32277C0.0748143 0.585388 0.592984 0.0645536 1.3233 0.0113501C1.48664 -0.000784052 1.65091 0.000149343 1.81519 0.000149343C9.60462 0.000149343 17.3941 0.000149343 25.1844 0.000149343C25.2896 0.000149343 25.3956 -0.000784052 25.5008 0.00201613C26.4282 0.025351 27.0008 0.594722 26.999 1.48985C26.9971 2.38404 26.4235 2.96461 25.4914 2.96648C21.4972 2.97395 17.502 2.96928 13.5078 2.97021Z" fill="white"/>
<path d="M11.9893 17.89C15.4663 17.89 18.9442 17.8872 22.4212 17.8919C23.4913 17.8928 24.0714 18.5294 23.9823 19.5785C23.9137 20.3896 23.3261 20.8582 22.3611 20.8591C16.8114 20.861 11.2618 20.8591 5.71211 20.8591C4.31906 20.8591 2.92507 20.8675 1.53202 20.8554C0.41871 20.8461 -0.221491 19.9817 0.0704482 18.9139C0.227213 18.3408 0.678734 17.9591 1.27575 17.904C1.45036 17.8881 1.62683 17.89 1.80237 17.89C5.19769 17.89 8.59302 17.89 11.9883 17.89H11.9893Z" fill="white"/>
<path d="M9.0095 11.9137C6.5266 11.9137 4.04277 11.9193 1.55988 11.9109C0.422156 11.9072 -0.228372 11.04 0.0738938 9.95917C0.22972 9.401 0.673731 9.02111 1.25292 8.96137C1.41531 8.94457 1.58053 8.94457 1.74386 8.94457C6.58199 8.94457 11.4192 8.94364 16.2573 8.9455C16.4788 8.9455 16.7069 8.94177 16.921 8.98937C17.6494 9.15178 18.0737 9.80423 17.9948 10.6069C17.9216 11.3583 17.396 11.8894 16.6347 11.9006C15.1243 11.923 13.6129 11.9109 12.1016 11.9128C11.0709 11.9137 10.0402 11.9128 9.0095 11.9128V11.9137Z" fill="white"/>
</svg>
