<svg width="23" height="23" viewBox="0 0 23 23" fill="none" xmlns="http://www.w3.org/2000/svg">
<path d="M6.89202 0.0231838C5.46965 0.0835266 4.49555 0.264557 3.6723 0.617992C2.90077 0.949879 2.44389 1.2559 1.87494 1.82054C1.10772 2.58345 0.62929 3.44118 0.327576 4.592C0.0603429 5.60921 0 6.77728 0 11.0142C0 15.1822 0.0560327 16.3632 0.306025 17.3804C0.926694 19.9105 2.78008 21.5225 5.50844 21.8975C6.28859 22.0009 7.92647 22.0483 11.0557 22.0483C13.9651 22.0483 15.6417 22.0052 16.396 21.9147C17.9391 21.7337 19.1459 21.1992 20.0985 20.2855C21.1717 19.251 21.7407 18.014 21.9476 16.2511C22.0295 15.5615 22.0295 6.3635 21.9476 5.71266C21.7795 4.39373 21.3872 3.30756 20.7666 2.47569C20.4606 2.06191 19.8054 1.43693 19.3959 1.15677C18.4692 0.53179 17.3529 0.186972 15.8831 0.0619774C15.1892 0.0059433 8.06871 -0.0242271 6.89202 0.0231838ZM16.215 2.10501C17.4434 2.28604 18.133 2.59207 18.7968 3.25153C19.2278 3.68255 19.4649 4.06185 19.6761 4.64804C20.0295 5.63938 20.064 6.16523 20.064 11.0358C20.064 13.8417 20.0468 15.1908 20.008 15.6434C19.883 17.139 19.5856 17.945 18.8873 18.6907C18.1589 19.4665 17.2494 19.8501 15.84 19.9794C15.0771 20.0527 8.77127 20.0872 7.31873 20.0269C6.66358 20.001 5.97826 19.9579 5.79292 19.932C4.97829 19.82 4.18952 19.5312 3.69816 19.1734C3.39213 18.945 2.90077 18.4105 2.71974 18.1088C2.35768 17.5054 2.14217 16.6563 2.0689 15.5787C1.93959 13.6219 1.98269 6.90658 2.12924 5.79455C2.28441 4.64373 2.64216 3.86789 3.31886 3.21274C4.06021 2.49293 5.03432 2.14381 6.54289 2.04898C6.87047 2.03174 9.07298 2.01881 11.4436 2.02743C15.1202 2.03605 15.8228 2.04467 16.215 2.10501Z" fill="white"/>
<path d="M16.3443 3.94595C15.8573 4.19163 15.6245 4.57093 15.6245 5.13125C15.6245 5.53641 15.7193 5.77779 15.9952 6.05364C16.271 6.32518 16.5124 6.42432 16.9176 6.42432C17.2064 6.42432 17.3012 6.40708 17.5081 6.30363C17.9434 6.08812 18.1891 5.71313 18.2236 5.21315C18.2537 4.7692 18.1546 4.51058 17.8486 4.20025C17.5641 3.91578 17.3141 3.81664 16.896 3.81664C16.6633 3.81664 16.5598 3.8425 16.3443 3.94595Z" fill="white"/>
<path d="M10.0254 5.43718C8.89181 5.64407 7.88753 6.17422 7.04273 7.02333C5.92208 8.13968 5.3833 9.44567 5.3833 11.0146C5.3833 11.9628 5.56002 12.743 5.95225 13.5274C7.15911 15.9239 9.81419 17.1523 12.396 16.5101C13.4132 16.2558 14.1977 15.8162 14.9606 15.0791C15.6459 14.4153 16.1071 13.6912 16.3959 12.8249C16.6028 12.1999 16.6804 11.7171 16.6804 11.0146C16.6804 10.3163 16.6028 9.82928 16.4002 9.21723C16.1243 8.38967 15.7235 7.73452 15.0985 7.08799C14.2451 6.2087 13.1805 5.63976 12.0081 5.43287C11.5297 5.35097 10.4909 5.35097 10.0254 5.43718ZM11.7322 7.41125C13.7063 7.79055 15.0166 9.73014 14.6373 11.7171C14.4046 12.9197 13.521 13.9886 12.3917 14.424C11.84 14.6395 11.521 14.6912 10.8831 14.6653C10.4306 14.6481 10.2538 14.6222 9.95643 14.5274C8.65044 14.1136 7.69788 13.0576 7.43065 11.7301C7.3272 11.2172 7.366 10.4198 7.52116 9.93703C7.92632 8.65259 9.00818 7.67417 10.2969 7.41556C10.6805 7.33798 11.3443 7.33798 11.7322 7.41125Z" fill="white"/>
</svg>
