<svg width="20" height="22" viewBox="0 0 20 22" fill="none" xmlns="http://www.w3.org/2000/svg">
<path d="M10.3071 19.0285L15.4317 14.285C18.2619 11.6653 18.2619 7.41776 15.4317 4.79799C12.6015 2.17823 8.01279 2.17823 5.18257 4.79799C2.35234 7.41776 2.35234 11.6653 5.18257 14.285L10.3071 19.0285ZM10.3071 21.7391L3.71841 15.6403C0.079542 12.272 0.079542 6.81098 3.71841 3.44271C7.35727 0.0744357 13.257 0.0744357 16.8959 3.44271C20.5348 6.81098 20.5348 12.272 16.8959 15.6403L10.3071 21.7391ZM10.3071 11.4582C11.4508 11.4582 12.3778 10.6001 12.3778 9.5415C12.3778 8.48296 11.4508 7.62484 10.3071 7.62484C9.16353 7.62484 8.2365 8.48296 8.2365 9.5415C8.2365 10.6001 9.16353 11.4582 10.3071 11.4582ZM10.3071 13.3748C8.01998 13.3748 6.16586 11.6586 6.16586 9.5415C6.16586 7.42441 8.01998 5.70817 10.3071 5.70817C12.5943 5.70817 14.4484 7.42441 14.4484 9.5415C14.4484 11.6586 12.5943 13.3748 10.3071 13.3748Z" fill="#4646B6"/>
</svg>
