<svg width="20" height="20" viewBox="0 0 20 20" fill="none" xmlns="http://www.w3.org/2000/svg">
<path d="M13.0913 20.0001C12.387 20.0001 11.8577 19.6103 11.5909 18.8885C10.6884 16.4442 9.78481 14.0011 8.89064 11.5534C8.80814 11.3267 8.68191 11.2104 8.46653 11.1358C6.02155 10.2879 3.58432 9.41509 1.13436 8.58337C-9.53595e-05 8.19817 -0.319559 6.88812 0.339301 6.05178C0.53419 5.80481 0.781124 5.63881 1.07235 5.54454C6.69315 3.72493 12.3139 1.90418 17.9358 0.0863095C18.9275 -0.234116 19.8687 0.36914 19.9905 1.41486C20.0171 1.64275 19.9844 1.89666 19.9146 2.11644C18.1407 7.70423 16.359 13.2891 14.5762 18.874C14.3487 19.586 13.7944 20.0001 13.0913 20.0001Z" fill="white"/>
</svg>
