<svg width="571" height="62" viewBox="0 0 571 62" fill="none" xmlns="http://www.w3.org/2000/svg">
<path d="M47.805 2.88372V15.0123L42.427 15.6908C41.6871 15.1254 40.9757 13.938 40.2928 12.1286H30.0489V51.4829C32.3253 52.3876 33.8904 53.3206 34.744 54.2818L33.8904 61.3215H13.9147L13.061 54.2818C13.8009 53.3206 15.3659 52.3876 17.7562 51.4829V12.1286H7.51222C6.82929 13.938 6.11791 15.1254 5.37807 15.6908L0 15.0123V2.88372H47.805Z" fill="white"/>
<path d="M50.5514 1.1026C53.7384 0.367533 56.6978 0 59.4295 0C62.1612 0 64.4661 0.0848159 66.3442 0.254448V21.4583C67.71 20.5536 69.5312 19.7902 71.8076 19.1683C74.084 18.5463 76.1043 18.2353 77.8686 18.2353C83.5027 18.2353 87.4011 19.5923 89.5637 22.3064C91.7263 25.0205 92.8077 29.1482 92.8077 34.6895V51.907C95.0272 52.7551 96.5922 53.7164 97.5028 54.7907L96.6491 61.3215H77.0149L76.1613 54.7907C76.958 53.7164 78.523 52.7551 80.8564 51.907V35.1135C80.8564 32.0602 80.3442 30.0246 79.3198 29.0068C78.3523 27.9325 76.5596 27.3953 73.9417 27.3953C71.3238 27.3953 68.7913 28.3 66.3442 30.1094V51.907C68.5637 52.7551 70.1287 53.7164 71.0393 54.7907L70.1856 61.3215H50.5514L49.6978 54.7907C50.4945 53.7164 52.0596 52.7551 54.3929 51.907V10.5171C52.401 9.83858 50.836 8.87734 49.6978 7.63338L50.5514 1.1026Z" fill="white"/>
<path d="M120.979 62C114.15 62 108.999 60.1906 105.528 56.5718C102.113 52.953 100.406 47.6945 100.406 40.7962C100.406 36.6119 101.003 33.0214 102.199 30.0246C103.394 26.9713 105.016 24.6247 107.064 22.985C111.048 19.8185 115.686 18.2353 120.979 18.2353C126.272 18.2353 130.313 19.5923 133.101 22.3064C135.947 24.964 137.369 29.7702 137.369 36.725C137.369 40.7962 135.349 42.8317 131.308 42.8317H112.784C113.012 46.394 113.922 48.9102 115.516 50.3803C117.166 51.8504 119.756 52.5855 123.284 52.5855C125.219 52.5855 127.069 52.3593 128.833 51.907C130.597 51.4546 131.878 51.0023 132.674 50.5499L133.869 49.8714L136.43 56.6566C136.089 57.0524 135.577 57.5613 134.894 58.1833C134.268 58.7487 132.617 59.5404 129.943 60.5581C127.325 61.5194 124.337 62 120.979 62ZM126.357 35.2832C126.471 34.4916 126.528 33.5303 126.528 32.3995C126.528 31.2686 126.073 30.0812 125.162 28.8372C124.252 27.5367 122.658 26.8865 120.382 26.8865C118.162 26.8865 116.455 27.565 115.26 28.922C114.064 30.2791 113.268 32.5691 112.869 35.7921L126.357 35.2832Z" fill="white"/>
<path d="M182.273 2.7989L183.126 9.83858C182.216 10.9129 180.651 11.8741 178.431 12.7223V51.4829C180.708 52.3876 182.273 53.3206 183.126 54.2818L182.273 61.3215H162.297L161.443 54.2818C162.183 53.3206 163.748 52.3876 166.138 51.4829V12.7223C163.805 11.8741 162.24 10.9129 161.443 9.83858L162.297 2.7989H182.273Z" fill="white"/>
<path d="M188.962 18.9138C192.092 18.2353 194.909 17.896 197.413 17.896C199.917 17.896 201.994 17.9526 203.645 18.0657V22.3064C205.011 21.1756 206.718 20.2143 208.767 19.4227C210.816 18.6311 212.665 18.2353 214.316 18.2353C220.803 18.2353 225.129 19.8468 227.291 23.0698C228.714 21.7127 230.592 20.5819 232.925 19.6772C235.259 18.7159 237.421 18.2353 239.413 18.2353C245.673 18.2353 249.885 19.6489 252.048 22.4761C254.21 25.2467 255.291 30.477 255.291 38.1669V51.907C257.511 52.7551 259.076 53.7164 259.987 54.7907L259.133 61.3215H239.499L238.645 54.7907C239.442 53.7164 241.007 52.7551 243.34 51.907V35.1135C243.34 32.0036 242.913 29.9398 242.06 28.922C241.206 27.9042 239.499 27.3953 236.938 27.3953C234.434 27.3953 232.043 28.3283 229.767 30.1943C230.051 32.1167 230.194 34.7743 230.194 38.1669V51.907C232.413 52.7551 233.978 53.7164 234.889 54.7907L234.035 61.3215H214.401L213.547 54.7907C214.344 53.7164 215.909 52.7551 218.242 51.907V35.1135C218.242 32.0036 217.816 29.9398 216.962 28.922C216.108 27.9042 214.429 27.3953 211.925 27.3953C209.421 27.3953 207.031 28.3 204.755 30.1094V51.907C206.974 52.7551 208.539 53.7164 209.45 54.7907L208.596 61.3215H188.962L188.108 54.7907C188.905 53.7164 190.47 52.7551 192.803 51.907V28.3283C190.812 27.6498 189.246 26.6886 188.108 25.4446L188.962 18.9138Z" fill="white"/>
<path d="M263.741 18.9138C266.871 18.2353 269.688 17.896 272.192 17.896C274.696 17.896 276.773 17.9526 278.424 18.0657V22.3064C279.789 21.1756 281.497 20.2143 283.546 19.4227C285.594 18.6311 287.444 18.2353 289.094 18.2353C295.582 18.2353 299.907 19.8468 302.07 23.0698C303.493 21.7127 305.371 20.5819 307.704 19.6772C310.038 18.7159 312.2 18.2353 314.192 18.2353C320.452 18.2353 324.664 19.6489 326.826 22.4761C328.989 25.2467 330.07 30.477 330.07 38.1669V51.907C332.29 52.7551 333.855 53.7164 334.765 54.7907L333.912 61.3215H314.277L313.424 54.7907C314.22 53.7164 315.786 52.7551 318.119 51.907V35.1135C318.119 32.0036 317.692 29.9398 316.838 28.922C315.985 27.9042 314.277 27.3953 311.716 27.3953C309.212 27.3953 306.822 28.3283 304.546 30.1943C304.83 32.1167 304.972 34.7743 304.972 38.1669V51.907C307.192 52.7551 308.757 53.7164 309.668 54.7907L308.814 61.3215H289.18L288.326 54.7907C289.123 53.7164 290.688 52.7551 293.021 51.907V35.1135C293.021 32.0036 292.594 29.9398 291.741 28.922C290.887 27.9042 289.208 27.3953 286.704 27.3953C284.2 27.3953 281.81 28.3 279.533 30.1094V51.907C281.753 52.7551 283.318 53.7164 284.229 54.7907L283.375 61.3215H263.741L262.887 54.7907C263.684 53.7164 265.249 52.7551 267.582 51.907V28.3283C265.59 27.6498 264.025 26.6886 262.887 25.4446L263.741 18.9138Z" fill="white"/>
<path d="M338.69 18.9138C341.877 18.1788 344.836 17.8112 347.568 17.8112C350.3 17.8112 352.605 17.896 354.483 18.0657V51.907C356.702 52.7551 358.267 53.7164 359.178 54.7907L358.324 61.3215H338.69L337.836 54.7907C338.633 53.7164 340.198 52.7551 342.532 51.907V28.3283C340.54 27.6498 338.975 26.6886 337.836 25.4446L338.69 18.9138ZM348.336 13.0616C343.613 13.0616 341.251 10.9412 341.251 6.70041C341.251 2.4031 343.613 0.254448 348.336 0.254448C353.117 0.254448 355.507 2.4031 355.507 6.70041C355.507 10.9412 353.117 13.0616 348.336 13.0616Z" fill="white"/>
<path d="M402.51 2.7989C409.225 2.7989 414.091 3.22298 417.108 4.07114C420.181 4.86275 422.372 5.82399 423.681 6.95486C426.583 9.44277 428.034 13.2595 428.034 18.4049C428.034 22.2499 425.957 25.8969 421.803 29.3461C427.095 32.0037 429.742 36.9512 429.742 44.1888C429.742 49.8431 427.864 54.0556 424.108 56.8263C420.408 59.5404 414.86 61.0388 407.461 61.3215H383.132L382.278 54.2818C383.018 53.3206 384.583 52.3876 386.973 51.4829V12.7223C384.64 11.8741 383.075 10.9129 382.278 9.83858L383.132 2.7989H402.51ZM406.864 35.9617H399.266V52.0766H405.156C409.026 52.0766 411.957 51.5112 413.949 50.3803C415.941 49.2494 416.937 47.2139 416.937 44.2736C416.937 41.3333 416.14 39.213 414.547 37.9124C413.01 36.6119 410.449 35.9617 406.864 35.9617ZM403.705 12.0438H399.266V26.7168H406.266C409.168 26.7168 411.388 25.9818 412.925 24.5116C414.461 23.0415 415.23 21.2604 415.23 19.1683C415.23 17.0196 414.689 15.4081 413.608 14.3338C412.526 13.2595 411.274 12.6092 409.851 12.383C408.429 12.1569 406.38 12.0438 403.705 12.0438Z" fill="white"/>
<path d="M454.172 62C447.457 62 442.477 60.2189 439.233 56.6566C435.99 53.0944 434.368 47.7228 434.368 40.5417C434.368 33.3041 436.16 27.7912 439.746 24.0027C443.388 20.1578 448.595 18.2353 455.368 18.2353C462.14 18.2353 467.148 19.9316 470.392 23.3242C473.693 26.7168 475.343 32.0319 475.343 39.2695C475.343 46.4505 473.494 52.0483 469.794 56.0629C466.152 60.021 460.945 62 454.172 62ZM446.66 39.7784C446.66 48.8254 449.392 53.3488 454.855 53.3488C457.644 53.3488 459.693 52.3311 461.002 50.2955C462.368 48.2034 463.051 44.8108 463.051 40.1176C463.051 31.2969 460.262 26.8865 454.685 26.8865C451.953 26.8865 449.933 27.876 448.624 29.855C447.315 31.7775 446.66 35.0853 446.66 39.7784Z" fill="white"/>
<path d="M499.44 62C492.724 62 487.745 60.2189 484.501 56.6566C481.257 53.0944 479.635 47.7228 479.635 40.5417C479.635 33.3041 481.428 27.7912 485.013 24.0027C488.655 20.1578 493.863 18.2353 500.635 18.2353C507.407 18.2353 512.415 19.9316 515.659 23.3242C518.96 26.7168 520.611 32.0319 520.611 39.2695C520.611 46.4505 518.761 52.0483 515.062 56.0629C511.42 60.021 506.212 62 499.44 62ZM491.928 39.7784C491.928 48.8254 494.659 53.3488 500.123 53.3488C502.911 53.3488 504.96 52.3311 506.269 50.2955C507.635 48.2034 508.318 44.8108 508.318 40.1176C508.318 31.2969 505.529 26.8865 499.952 26.8865C497.22 26.8865 495.2 27.876 493.891 29.855C492.582 31.7775 491.928 35.0853 491.928 39.7784Z" fill="white"/>
<path d="M524.817 1.1026C528.004 0.367533 530.963 0 533.695 0C536.427 0 538.732 0.0848159 540.61 0.254448V51.907C542.829 52.7551 544.394 53.7164 545.305 54.7907L544.451 61.3215H524.817L523.963 54.7907C524.76 53.7164 526.325 52.7551 528.658 51.907V10.5171C526.667 9.83858 525.102 8.87734 523.963 7.63338L524.817 1.1026ZM556.488 61.3215L541.378 39.3543L550.768 27.2257C549.801 26.6603 549.118 26.0666 548.719 25.4446L549.573 18.9138H568.354L569.207 25.4446C567.955 27.0278 565.594 28.2718 562.122 29.1765L553.927 38.5062L563.573 51.1436C567.102 51.9352 569.577 53.1509 571 54.7907L570.146 61.3215H556.488Z" fill="white"/>
</svg>
