<svg width="22" height="17" viewBox="0 0 22 17" fill="none" xmlns="http://www.w3.org/2000/svg">
<path d="M1.57265 0.073164C0.477025 0.339551 -0.210424 1.45666 0.0645552 2.5179C0.150486 2.84015 0.309459 3.13231 0.524287 3.35573C0.717632 3.55338 9.8693 9.67597 10.2044 9.82635C10.7157 10.0584 11.3215 10.0498 11.8457 9.80487C12.2539 9.61152 21.2208 3.60923 21.4485 3.37722C22.5184 2.28589 21.934 0.429779 20.4045 0.0688677C20.0006 -0.0256567 1.96793 -0.0213594 1.57265 0.073164Z" fill="white"/>
<path d="M0 9.64602C0 13.1262 0.0128897 14.7202 0.0472621 14.8792C0.206235 15.6354 0.816346 16.2541 1.59402 16.4389C1.9979 16.5334 19.9274 16.5334 20.3786 16.4389C21.1605 16.2756 21.7921 15.6483 21.9511 14.8792C22.007 14.6171 22.0199 4.62764 21.964 4.65342C21.9468 4.65771 19.8716 6.04121 17.3495 7.72546C14.8274 9.40971 12.6276 10.8576 12.4557 10.9393C11.9831 11.1799 11.5792 11.2701 10.9992 11.2701C10.4192 11.2701 10.0153 11.1799 9.54265 10.9393C9.37079 10.8576 7.17095 9.40971 4.64887 7.72546C2.1268 6.04121 0.0515587 4.65771 0.0343725 4.65342C0.0128897 4.64482 0 6.89192 0 9.64602Z" fill="white"/>
</svg>
