<svg width="103" height="102" viewBox="0 0 103 102" fill="none" xmlns="http://www.w3.org/2000/svg">
<circle cx="51" cy="51" r="51" transform="matrix(-1 0 0 1 102 0)" fill="#36BCBA"/>
<path d="M58.5144 38.1395C59.0661 38.3978 59.5591 38.8907 59.7352 39.3602C59.9112 39.8297 59.8995 40.7922 59.6999 41.2383C59.606 41.4495 57.6576 43.4919 55.2983 45.8394L51.0611 50.0649L76.2617 50.1236L101.474 50.1823L101.92 50.464C102.167 50.6166 102.507 50.957 102.683 51.2152C102.953 51.6143 103 51.8256 103 52.4711C103 53.1167 102.953 53.328 102.683 53.7271C102.507 53.9853 102.167 54.3257 101.92 54.4783L101.474 54.76L76.2617 54.8187L51.0611 54.8774L55.2983 59.1029C57.6576 61.4504 59.606 63.4928 59.6999 63.704C59.8995 64.1501 59.9112 65.1126 59.7352 65.5821C59.3126 66.7206 57.775 67.331 56.6716 66.8145C56.1669 66.5798 43.7133 54.3492 43.2908 53.6684C42.8917 53.0228 42.9034 51.8608 43.326 51.227C43.819 50.4875 56.1669 38.3625 56.6716 38.1278C57.235 37.8578 57.9276 37.8696 58.5144 38.1395Z" fill="white"/>
</svg>
