<svg width="23" height="23" viewBox="0 0 23 23" fill="none" xmlns="http://www.w3.org/2000/svg">
<path d="M9.96387 0.166748C15.3459 0.166748 19.7139 4.53475 19.7139 9.91675C19.7139 15.2987 15.3459 19.6667 9.96387 19.6667C4.58187 19.6667 0.213867 15.2987 0.213867 9.91675C0.213867 4.53475 4.58187 0.166748 9.96387 0.166748ZM9.96387 17.5001C14.1537 17.5001 17.5472 14.1065 17.5472 9.91675C17.5472 5.72696 14.1537 2.33341 9.96387 2.33341C5.77408 2.33341 2.38053 5.72696 2.38053 9.91675C2.38053 14.1065 5.77408 17.5001 9.96387 17.5001ZM19.1563 17.5771L22.2204 20.6412L20.6883 22.1733L17.6242 19.1092L19.1563 17.5771Z" fill="#4646B6"/>
</svg>
