<svg width="22" height="25" viewBox="0 0 22 25" fill="none" xmlns="http://www.w3.org/2000/svg">
<path d="M11.5647 8.85686C11.5403 18.8379 11.5696 18.0461 11.1536 18.8917C10.7865 19.6395 10.2334 20.1919 9.49434 20.5585C8.87273 20.8615 8.535 20.9397 7.83018 20.9397C7.14494 20.9397 6.79742 20.8615 6.21497 20.578C5.47589 20.2114 4.87875 19.62 4.52634 18.8917C4.24245 18.3003 4.16414 17.963 4.16414 17.2787C4.15924 16.5699 4.23756 16.2425 4.5606 15.5924C4.75149 15.2013 4.85427 15.0596 5.23116 14.6881C5.71572 14.2042 6.16113 13.9354 6.80232 13.735C7.2722 13.5883 8.05044 13.5541 8.5399 13.6568C8.74057 13.7008 8.93636 13.735 8.97062 13.735C9.01467 13.735 9.02935 13.2902 9.02935 11.6869V9.63403L8.79931 9.59493C8.66715 9.57538 8.21196 9.56071 7.78123 9.56071C6.52333 9.5656 5.52973 9.79044 4.44313 10.3134C0.145684 12.3761 -1.3129 17.6013 1.3057 21.5458C1.7609 22.2301 2.73981 23.2126 3.40058 23.6525C5.44652 25.0064 7.90849 25.3584 10.253 24.6252C12.3528 23.9702 14.2274 22.2546 15.0742 20.2212C15.2895 19.6933 15.4559 19.1116 15.5685 18.5007C15.6468 18.051 15.6517 17.6306 15.6419 13.1093C15.6321 10.4161 15.6419 8.21165 15.6615 8.21165C15.6811 8.21165 15.779 8.2752 15.8769 8.3534C16.4251 8.78843 17.541 9.37986 18.3878 9.69757C19.3422 10.0495 20.6931 10.3134 21.5595 10.3134H22L21.9902 8.29475L21.9755 6.28094L21.5008 6.25161C20.003 6.15385 18.6374 5.5282 17.5166 4.42354C16.4202 3.34821 15.779 1.96982 15.6566 0.425247L15.6224 0H13.6058H11.5843L11.5647 8.85686Z" fill="white"/>
</svg>
