<svg width="23" height="18" viewBox="0 0 23 18" fill="none" xmlns="http://www.w3.org/2000/svg">
<path d="M15.1505 0.0666676C13.3092 0.387016 11.8514 1.67707 11.3685 3.426C11.2828 3.72471 11.2647 3.9022 11.2647 4.49961C11.2602 4.89355 11.2738 5.29615 11.2963 5.40005L11.3279 5.59052L11.0255 5.56022C9.03525 5.38706 7.42858 4.94983 5.82643 4.14895C4.34613 3.40869 2.80715 2.24417 1.86391 1.15759C1.7195 0.993082 1.5841 0.86754 1.56154 0.876198C1.53446 0.884855 1.43968 1.05802 1.34491 1.26581C0.695019 2.67275 0.816873 4.29614 1.66082 5.56022C1.90905 5.92819 2.31523 6.36542 2.64468 6.61651L2.98317 6.88058H2.79813C2.40097 6.88058 1.57508 6.66413 1.12828 6.44768C1.0335 6.40006 0.934214 6.36109 0.916161 6.36109C0.852978 6.36109 0.934214 7.15331 1.03802 7.53426C1.44871 9.02778 2.60406 10.2096 4.14304 10.7031C4.39577 10.7854 4.57629 10.8633 4.54019 10.8763C4.3371 10.9499 3.66916 11.0018 3.15015 10.9845L2.56345 10.9585L2.59504 11.0711C2.64468 11.2616 2.97865 11.8676 3.18626 12.1447C3.98056 13.2183 5.28485 13.9542 6.55755 14.0538C6.7471 14.0668 6.90506 14.0928 6.90506 14.1144C6.90506 14.1837 5.89412 14.7854 5.27583 15.0798C3.86774 15.7508 2.47318 16.0408 0.834925 16.0062L0 15.9889L0.234682 16.1317C0.582191 16.3395 1.62923 16.846 2.0986 17.0322C4.63045 18.0409 7.58654 18.2703 10.3756 17.6772C14.4781 16.8027 17.8584 14.0668 19.5643 10.2356C20.2909 8.59921 20.6565 6.98881 20.6971 5.25719L20.7107 4.47796L21.0401 4.22688C21.4553 3.9022 21.9247 3.47362 22.2812 3.09267C22.5836 2.76366 23.0259 2.19656 22.9988 2.17491C22.9898 2.16625 22.8544 2.20954 22.6964 2.27015C22.0962 2.50392 20.7107 2.84158 20.5031 2.80262C20.4534 2.79396 20.4895 2.75067 20.6204 2.66842C20.9634 2.45197 21.5727 1.85023 21.8299 1.47793C22.0556 1.15759 22.385 0.521215 22.385 0.408661C22.385 0.382687 22.1097 0.495241 21.7712 0.655416C21.1575 0.941133 20.3586 1.21819 19.7358 1.36105L19.4064 1.43464L19.1311 1.19222C18.075 0.252815 16.5541 -0.17576 15.1505 0.0666676Z" fill="white"/>
</svg>
