<svg width="38" height="36" viewBox="0 0 38 36" fill="none" xmlns="http://www.w3.org/2000/svg">
<path d="M38 19.2986C37.8057 20.1229 37.7046 20.9835 37.4004 21.7647C35.9785 25.4194 33.3377 27.6124 29.3987 28.0862C28.3006 28.2184 27.175 28.1185 26.0612 28.1224C25.2074 28.1254 24.3537 28.1244 23.5009 28.1224C22.7217 28.1205 22.2546 27.7201 22.2605 27.0651C22.2664 26.4268 22.7306 26.0313 23.4862 26.0303C25.0701 26.0283 26.6549 25.9804 28.2358 26.0391C31.8284 26.1722 34.8764 23.5309 35.6841 20.2208C36.6752 16.1628 34.0698 11.9726 29.9806 11.0808C29.2289 10.9163 28.9708 10.6314 28.8737 9.85406C28.3889 5.96738 25.4763 2.90895 21.6089 2.22462C17.8122 1.55302 13.9497 3.44545 12.1774 6.84556C11.6966 7.76877 11.3865 7.89506 10.3619 7.63073C8.91057 7.25674 7.62307 7.60429 6.57992 8.65379C5.54757 9.69253 5.21588 10.9672 5.57603 12.4015C5.59074 12.4612 5.61332 12.5189 5.62804 12.5787C5.82332 13.3433 5.70752 13.681 5.04022 14.1157C4.08834 14.7364 3.31898 15.5235 2.81556 16.5427C1.71549 18.768 1.89802 20.9463 3.1914 23.0198C4.24339 24.7076 5.76051 25.7591 7.77812 26.0068C7.94887 26.0274 8.12355 26.0322 8.29626 26.0322C10.3992 26.0342 12.5022 26.0322 14.6052 26.0352C15.1439 26.0362 15.509 26.2868 15.667 26.7391C15.8171 27.1679 15.7092 27.6545 15.3255 27.8904C15.089 28.0353 14.775 28.1166 14.4953 28.1195C12.8005 28.1401 11.1058 28.1342 9.41105 28.1273C8.73099 28.1244 8.04406 28.1567 7.37381 28.0715C4.95092 27.7631 3.08346 26.5071 1.68114 24.5569C0.362243 22.7222 -0.207907 20.6614 0.0678453 18.4067C0.328878 16.2754 1.28763 14.4897 2.92645 13.0956C3.28856 12.7882 3.43674 12.5268 3.37099 12.0216C2.95785 8.86624 5.40822 5.79214 8.58084 5.45732C9.11665 5.40054 9.66619 5.43186 10.2069 5.46809C10.4405 5.48375 10.5563 5.42991 10.677 5.23606C12.0999 2.94419 14.1057 1.38561 16.667 0.532886C21.0751 -0.933674 26.179 0.70813 28.8962 4.45873C29.8442 5.76669 30.5145 7.19311 30.8147 8.78204C30.8677 9.06204 30.9982 9.17757 31.2652 9.27155C35.1335 10.6285 37.3003 13.3824 37.9264 17.3905C37.9411 17.4845 37.9745 17.5765 37.999 17.6695V19.2986H38Z" fill="#A1A1A1"/>
<path d="M17.8266 16.6397C17.7471 16.7494 17.6804 16.8727 17.5852 16.9677C16.4606 18.0965 15.335 19.2243 14.2016 20.3443C13.7296 20.8113 13.1182 20.824 12.6825 20.3981C12.2556 19.9811 12.2507 19.333 12.7051 18.8777C14.5441 17.0313 16.389 15.1908 18.2397 13.3561C18.7049 12.895 19.2907 12.8911 19.7578 13.3541C21.6096 15.1878 23.4535 17.0294 25.2935 18.8748C25.7488 19.332 25.7469 19.9801 25.322 20.3972C24.8902 20.8211 24.27 20.8093 23.7999 20.3453C22.6665 19.2253 21.5429 18.0965 20.4144 16.9706C20.3192 16.8756 20.221 16.7856 20.0493 16.6221C20.0493 16.8424 20.0493 16.9804 20.0493 17.1194C20.0493 22.6215 20.0493 28.1235 20.0493 33.6256C20.0493 33.7861 20.0532 33.9467 20.0375 34.1063C19.9855 34.6369 19.5498 35.0324 19.016 35.0422C18.4733 35.052 18.0091 34.6428 17.9591 34.1024C17.9453 33.9555 17.9502 33.8067 17.9502 33.6589C17.9502 28.1441 17.9502 22.6303 17.9502 17.1155C17.9502 16.9833 17.9502 16.8502 17.9502 16.718C17.909 16.6926 17.8668 16.6661 17.8256 16.6407L17.8266 16.6397Z" fill="#A1A1A1"/>
</svg>
