<svg width="25" height="17" viewBox="0 0 25 17" fill="none" xmlns="http://www.w3.org/2000/svg">
<path d="M9.87248 0.0266018C5.65427 0.102623 3.17758 0.290146 2.40068 0.594236C1.69677 0.872984 1.10758 1.39501 0.758234 2.03866C0.304608 2.87491 0.0647592 4.70959 0.00740409 7.77582C-0.0343087 10.2237 0.101258 12.4487 0.388033 13.8576C0.695665 15.3933 1.54556 16.2701 3.01073 16.5691C4.34553 16.8428 7.88591 17.005 12.5317 16.9999C17.2765 16.9999 20.6552 16.8478 22.0735 16.5691C22.5375 16.4779 23.1945 16.1586 23.5386 15.8646C23.8984 15.5555 24.2634 15.0233 24.4146 14.5874C24.8317 13.3914 25.0872 9.90952 24.9725 7.02067C24.8161 3.09791 24.4876 1.86634 23.377 1.05037C22.866 0.675325 22.5115 0.538486 21.7189 0.401646C20.7387 0.239464 18.3819 0.0975552 15.8948 0.0468731C12.9853 -0.0088768 11.9425 -0.0139446 9.87248 0.0266018ZM13.2356 6.67603C14.9927 7.65926 16.4266 8.48537 16.4266 8.51071C16.4214 8.55125 10.0863 12.1344 10.0185 12.1344C10.0133 12.1344 10.0028 10.5025 10.0028 8.51071C10.0028 6.51892 10.0133 4.88697 10.0237 4.88697C10.0341 4.88697 11.4784 5.69281 13.2356 6.67603Z" fill="white"/>
</svg>
